<svg width="169" height="175" viewBox="0 0 169 175" fill="none" xmlns="http://www.w3.org/2000/svg">
<path d="M158.698 69.9564C154.777 69.3662 152.524 64.3122 152.524 56.0832C152.524 32.2307 142.939 18.8391 134.893 11.8041C126.474 4.43673 115.036 0.0271359 104.283 0H97.418C96.8956 0 89.7589 0.115328 81.6859 0.291711C76.2723 0.115328 71.32 0 70.7434 0H63.8576C53.1254 0.0271359 41.6944 4.43673 33.2687 11.8041C25.2296 18.8391 15.6439 32.2307 15.6439 56.0832C15.6439 64.3054 13.3916 69.3662 9.46366 69.9564C4.07039 70.7705 0 75.4582 0 80.8651V93.4765C0 98.9308 3.94828 103.537 9.39582 104.419C13.3644 105.064 15.6439 110.124 15.6439 118.292C15.6439 142.145 25.2364 155.536 33.2822 162.571C41.7079 169.939 53.1457 174.348 63.8983 174.376H70.7434C71.4489 174.376 76.9711 174.226 82.3576 174.023C89.725 174.233 96.8617 174.376 97.418 174.376H104.283C115.016 174.348 126.453 169.939 134.879 162.571C142.925 155.536 152.518 142.145 152.518 118.292C152.518 110.118 154.79 105.064 158.766 104.419C164.206 103.53 168.155 98.9308 168.155 93.4765V80.8651C168.155 75.465 164.084 70.7705 158.691 69.9564H158.698Z" fill="white"/>
<path d="M142.696 117.422C142.696 100.066 151.585 96.749 155.41 96.1226C156.827 95.8918 157.896 94.6785 157.896 93.3003V81.0417C157.896 79.6701 156.834 78.4766 155.429 78.2656C151.598 77.6853 142.696 74.4542 142.696 56.9598C142.696 20.171 117.203 10.3919 103.724 10.3589H97.0512C96.6819 10.3589 89.7976 10.4644 81.7197 10.649C76.24 10.471 71.4988 10.3589 71.1229 10.3589H64.4496C50.9712 10.3919 25.4781 20.171 25.4781 56.9598C25.4781 74.4608 16.5694 77.6919 12.7448 78.2656C11.3402 78.4766 10.2786 79.6701 10.2786 81.0417V93.3003C10.2786 94.6785 11.3468 95.8918 12.7646 96.1226C16.5892 96.7424 25.4781 100.066 25.4781 117.422C25.4781 154.211 50.9777 163.99 64.4694 164.023H71.1229C71.5581 164.023 76.8137 163.891 82.3726 163.673C89.8042 163.891 96.6819 164.023 97.0446 164.023H103.705C117.19 163.99 142.689 154.211 142.689 117.422H142.696ZM103.705 162.77H97.0512C96.6885 162.77 89.8306 162.638 82.3726 162.42C76.7148 162.638 71.4856 162.77 71.1229 162.77H64.4694C51.4064 162.737 26.731 153.215 26.731 117.422C26.731 98.8987 16.7804 95.5093 12.969 94.8895C12.1777 94.7576 11.5315 94.0982 11.5315 93.3003V81.0417C11.5315 80.257 12.1579 79.6174 12.936 79.4987C17.0706 78.8722 26.7376 75.4433 26.7376 56.9532C26.7376 21.1601 51.413 11.6316 64.4628 11.6052H71.1295C71.4592 11.6052 76.2004 11.7107 81.7197 11.8953C89.8108 11.7107 96.7281 11.6052 97.0578 11.6052H103.724C116.774 11.6382 141.45 21.1601 141.45 56.9532C141.45 75.4367 151.11 78.8722 155.245 79.4987C156.023 79.6174 156.649 80.257 156.649 81.0417V93.3003C156.649 94.1048 156.003 94.7642 155.212 94.8895C151.4 95.5093 141.45 98.8987 141.45 117.422C141.45 153.215 116.774 162.743 103.711 162.77H103.705Z" fill="white"/>
<path d="M155.205 94.8898C155.997 94.7579 156.643 94.0985 156.643 93.3006V81.042C156.643 80.2573 156.016 79.6177 155.238 79.499C151.104 78.8725 141.443 75.4436 141.443 56.9535C141.443 21.1604 116.768 11.6318 103.718 11.6055H97.0515C96.7217 11.6055 89.8045 11.711 81.7134 11.8956C76.1941 11.711 71.4529 11.6055 71.1232 11.6055H64.4565C51.4067 11.6384 26.7313 21.1604 26.7313 56.9535C26.7313 75.437 17.0708 78.8725 12.9297 79.499C12.1516 79.6177 11.5251 80.2573 11.5251 81.042V93.3006C11.5251 94.1051 12.1714 94.7645 12.9627 94.8898C16.7741 95.5096 26.7247 98.899 26.7247 117.422C26.7247 153.215 51.4001 162.744 64.4631 162.77H71.1166C71.4793 162.77 76.7019 162.638 82.3663 162.421C89.8243 162.638 96.6888 162.77 97.0449 162.77H103.698C116.761 162.737 141.437 153.215 141.437 117.422C141.437 98.899 151.387 95.5096 155.199 94.8898H155.205ZM136.518 88.2956C130.761 94.0853 126.349 103.297 126.349 117.415C126.349 146.344 105.189 148.184 102.868 148.23H97.0515C96.6888 148.23 89.8308 148.362 82.3728 148.579C76.7151 148.362 71.4859 148.23 71.1232 148.23H65.3071C62.9794 148.184 41.8253 146.344 41.8253 117.415C41.8253 103.291 37.4138 94.0853 31.6571 88.2956C31.0505 87.6823 31.0505 86.6866 31.6571 86.0734C37.4138 80.2837 41.8253 71.0782 41.8253 56.9535C41.8253 28.0249 63.0651 26.1852 65.3071 26.139H71.1232C71.4529 26.139 76.1941 26.0335 81.7134 25.8489C89.8045 26.0335 96.7217 26.139 97.0515 26.139H102.868C105.11 26.1852 126.349 28.0249 126.349 56.9535C126.349 71.0782 130.761 80.2837 136.518 86.0734C137.124 86.6866 137.124 87.6823 136.518 88.2956Z" fill="#17161E"/>
<path d="M60.8298 81.7883C66.0713 81.7883 70.3291 77.5379 70.3291 72.289C70.3291 67.0405 66.0783 62.7897 60.8298 62.7897C55.5813 62.7897 51.3305 67.0405 51.3305 72.289C51.3305 77.5375 55.5813 81.7883 60.8298 81.7883Z" fill="#17161E" stroke="#17161E" stroke-width="1.55043"/>
<path d="M107.857 73.5545L107.855 73.5541C104.857 72.6667 102.111 72.2302 99.6106 72.2302C97.0856 72.2302 94.3271 72.6669 91.3303 73.5539C88.4899 74.4015 86.0169 75.4849 83.9036 76.7977C83.2645 77.1947 82.4197 76.7438 82.4197 75.9738L82.4197 72.0154C82.4197 71.7473 82.5309 71.4898 82.729 71.3058L83.2565 71.8739L82.729 71.3058C85.0311 69.1681 87.6442 67.5115 90.5641 66.3385C93.511 65.1548 96.528 64.5605 99.6106 64.5605C102.717 64.5605 105.746 65.1545 108.694 66.3385C111.614 67.5115 114.227 69.1681 116.529 71.3058L116.005 71.8698L116.529 71.3058C116.727 71.4898 116.838 71.7473 116.838 72.0154L116.838 75.9739C116.838 76.7438 115.993 77.1946 115.354 76.798M107.857 73.5545L115.354 76.798M107.857 73.5545C110.744 74.4025 113.241 75.486 115.354 76.798M107.857 73.5545L115.354 76.798" fill="#17161E" stroke="#17161E" stroke-width="1.55043"/>
<path d="M67.8928 108.838L67.8912 108.838C62.0964 107.136 57.0856 104.946 52.8492 102.274L52.4371 102.928L52.8492 102.274C52.2064 101.869 51.3615 102.327 51.3615 103.094L51.3615 111.208C51.3615 111.476 51.4729 111.733 51.6699 111.917C56.0958 116.04 61.1214 119.232 66.7424 121.49C72.3907 123.759 78.19 124.895 84.1353 124.895C90.034 124.895 95.8094 123.758 101.457 121.49C107.078 119.232 112.104 116.04 116.53 111.917L116.055 111.407L116.53 111.917C116.726 111.733 116.838 111.476 116.838 111.208L116.838 103.094C116.838 102.327 115.993 101.869 115.35 102.274C111.114 104.947 106.15 107.137 100.448 108.838C94.5663 110.579 89.1301 111.443 84.1353 111.443C79.1884 111.443 73.776 110.58 67.8928 108.838Z" fill="#17161E" stroke="#17161E" stroke-width="1.55043"/>
</svg>
